<svg xmlns="http://www.w3.org/2000/svg" viewBox="0 0 512 512">
  <rect width="512" height="512" fill="#6B7553"/>
  <g transform="translate(86, 106)">
    <!-- Arbre saule pleureur optimisé pour favicon -->
    <path d="M170 0c-30 0-55 15-70 35-10-10-25-15-40-15-35 0-60 30-60 65 0 5 0 10 2 15C-10 110-20 125-20 145c0 35 25 65 60 65 10 0 20-2 28-7 0 85 0 170 0 255h204c0-85 0-170 0-255 8 5 18 7 28 7 35 0 60-30 60-65 0-20-10-35-22-45 2-5 2-10 2-15 0-35-25-65-60-65-15 0-30 5-40 15-15-20-40-35-70-35z"
          fill="#8B9573" opacity="0.3"/>

    <!-- Tronc -->
    <rect x="150" y="180" width="40" height="120" rx="5" fill="#6B7553"/>

    <!-- Branches retombantes -->
    <path d="M120 60 Q110 100 105 140 Q103 160 108 180"
          stroke="#8B9573" stroke-width="4" fill="none" stroke-linecap="round"/>
    <path d="M140 50 Q135 90 132 130 Q130 150 135 170"
          stroke="#8B9573" stroke-width="4" fill="none" stroke-linecap="round"/>
    <path d="M160 45 Q160 85 160 125 Q160 145 165 165"
          stroke="#8B9573" stroke-width="5" fill="none" stroke-linecap="round"/>
    <path d="M180 45 Q180 85 180 125 Q180 145 175 165"
          stroke="#8B9573" stroke-width="5" fill="none" stroke-linecap="round"/>
    <path d="M200 50 Q205 90 208 130 Q210 150 205 170"
          stroke="#8B9573" stroke-width="4" fill="none" stroke-linecap="round"/>
    <path d="M220 60 Q230 100 235 140 Q237 160 232 180"
          stroke="#8B9573" stroke-width="4" fill="none" stroke-linecap="round"/>

    <!-- Feuillage supérieur -->
    <ellipse cx="170" cy="50" rx="70" ry="40" fill="#8B9573" opacity="0.8"/>
    <ellipse cx="170" cy="35" rx="50" ry="30" fill="#9BAA7F" opacity="0.9"/>
  </g>
</svg>
